<svg width="397" height="622" viewBox="0 0 397 622" fill="none" xmlns="http://www.w3.org/2000/svg">
<g opacity="0.2">
<path fill-rule="evenodd" clip-rule="evenodd" d="M114.275 219.87C126.451 190.502 100.969 145.652 125.986 126.034C154.976 103.301 202.072 140.114 235.559 124.759C263.388 111.998 260.481 61.742 289.218 51.1853C316.043 41.3308 344.505 63.8758 370.795 75.0788C394.178 85.0426 413.49 101.503 435.815 113.653C459.119 126.337 488.662 129.19 506.426 148.898C524.175 168.59 527.653 197.02 534.126 222.728C540.475 247.944 542.622 273.451 544.319 299.398C546.194 328.051 548.49 356.339 544.729 384.806C540.25 418.711 541.208 456.651 520.001 483.482C499.17 509.838 462.581 517.512 430.933 528.779C399.807 539.861 367.735 546.268 334.844 549.402C300.316 552.691 261.115 566.123 231.69 547.761C200.559 528.335 203.029 479.911 179.017 452.162C158.262 428.176 123.105 421.388 101.915 397.784C78.7896 372.026 47.8436 343.257 50.2428 308.725C52.7947 271.992 100.173 253.883 114.275 219.87Z" stroke="white" stroke-opacity="0.2" stroke-width="2"/>
<path fill-rule="evenodd" clip-rule="evenodd" d="M142.761 233.373C153.152 208.318 131.389 170.046 152.745 153.312C177.492 133.919 217.707 165.338 246.296 152.241C270.053 141.358 267.563 98.4775 292.096 89.4749C314.998 81.0711 339.301 100.312 361.749 109.875C381.714 118.38 398.206 132.428 417.268 142.799C437.167 153.625 462.391 156.064 477.56 172.882C492.718 189.688 495.692 213.945 501.222 235.882C506.647 257.398 508.484 279.161 509.938 301.301C511.543 325.748 513.508 349.885 510.302 374.173C506.483 403.102 507.308 435.474 489.206 458.364C471.425 480.848 440.188 487.389 413.169 496.998C386.596 506.448 359.215 511.91 331.133 514.578C301.654 517.379 268.188 528.833 243.062 513.161C216.48 496.58 218.58 455.264 198.075 431.584C180.351 411.114 150.334 405.317 132.238 385.174C112.49 363.192 86.0637 338.641 88.1063 309.177C90.2791 277.835 130.727 262.393 142.761 233.373Z" stroke="white" stroke-opacity="0.2" stroke-width="2"/>
<path fill-rule="evenodd" clip-rule="evenodd" d="M186.093 253.245C193.84 234.559 177.624 206.023 193.542 193.542C211.989 179.078 241.959 202.502 263.268 192.733C280.976 184.614 279.125 152.639 297.411 145.923C314.481 139.653 332.592 153.998 349.322 161.127C364.201 167.467 376.491 177.94 390.697 185.672C405.527 193.742 424.326 195.558 435.63 208.098C446.925 220.628 449.139 238.716 453.259 255.074C457.299 271.118 458.666 287.346 459.747 303.855C460.941 322.086 462.402 340.084 460.01 358.196C457.161 379.769 457.771 403.908 444.277 420.979C431.022 437.748 407.74 442.629 387.601 449.798C367.794 456.848 347.386 460.924 326.456 462.917C304.485 465.009 279.541 473.554 260.816 461.87C241.005 449.509 242.576 418.7 227.296 401.043C214.088 385.781 191.716 381.462 178.232 366.443C163.516 350.054 143.823 331.749 145.349 309.777C146.972 286.406 177.12 274.886 186.093 253.245Z" stroke="white" stroke-opacity="0.2" stroke-width="2"/>
</g>
</svg>
