<svg width="166" height="170" viewBox="0 0 166 170" fill="none" xmlns="http://www.w3.org/2000/svg">
<path fill-rule="evenodd" clip-rule="evenodd" d="M84.1288 11.083C99.9719 12.5055 116.376 6.92598 130.592 14.0084C145.424 21.3977 156.692 34.8391 162.679 50.2173C168.559 65.3226 163.826 81.4426 163.144 97.6313C162.259 118.658 172.568 143.639 158.099 159.021C143.767 174.257 118.27 168.515 97.3145 167.615C78.922 166.826 60.8168 163.806 45.1742 154.175C29.6573 144.622 17.8647 130.495 10.2478 114.009C2.42586 97.0787 -0.552893 78.6377 1.72728 60.1364C4.22907 39.837 6.09401 14.929 23.7546 4.41574C41.5713 -6.19055 63.456 9.22679 84.1288 11.083Z" fill="url(#paint0_linear_1_185)" fill-opacity="0.35"/>
<defs>
<linearGradient id="paint0_linear_1_185" x1="77.1125" y1="-2.70036" x2="91.8909" y2="172.699" gradientUnits="userSpaceOnUse">
<stop stop-color="#4E54E4"/>
<stop offset="1" stop-color="#BB227E"/>
</linearGradient>
</defs>
</svg>
