<svg width="193" height="180" viewBox="0 0 193 180" fill="none" xmlns="http://www.w3.org/2000/svg">
<path fill-rule="evenodd" clip-rule="evenodd" d="M111.011 16.9427C125.362 22.2918 139.165 27.1226 151.458 36.265C167.055 47.8635 187.704 57.6482 191.435 76.7516C195.204 96.0467 181.19 114.064 169.783 130.077C159.162 144.988 145.191 156.392 128.851 164.61C111.507 173.333 92.695 182.541 73.7501 178.374C54.7323 174.191 42.051 157.422 29.2742 142.708C16.4913 127.987 -0.856122 113.114 0.150731 93.6182C1.14698 74.3274 23.5486 64.6161 34.1411 48.4672C44.0807 33.3137 43.3572 9.08286 60.1048 2.21466C76.8704 -4.66095 94.0432 10.6181 111.011 16.9427Z" fill="url(#paint0_linear_1_187)" fill-opacity="0.35"/>
<defs>
<linearGradient id="paint0_linear_1_187" x1="114.455" y1="10.2037" x2="75.5421" y2="178.79" gradientUnits="userSpaceOnUse">
<stop stop-color="#4E54E4"/>
<stop offset="1" stop-color="#BB227E"/>
</linearGradient>
</defs>
</svg>
