<svg width="178" height="163" viewBox="0 0 178 163" fill="none" xmlns="http://www.w3.org/2000/svg">
<path fill-rule="evenodd" clip-rule="evenodd" d="M78.0363 3.12687C95.0392 2.58473 111.954 -3.03943 127.823 3.12701C146.027 10.201 163.955 21.7085 171.925 39.6103C180.057 57.8762 178.572 80.0212 170.119 98.1315C162.329 114.822 143.973 122.269 128.629 132.376C115.058 141.315 101.791 149.544 86.0487 153.511C66.8029 158.36 44.9662 168.255 28.1252 157.701C11.285 147.148 11.2607 122.915 6.38471 103.587C2.1314 86.7274 -1.89361 69.9209 1.68836 52.9083C5.41824 35.1933 11.7428 16.2023 26.8586 6.34628C41.5534 -3.2352 60.5234 3.68527 78.0363 3.12687Z" fill="url(#paint0_linear_1_188)" fill-opacity="0.35"/>
<defs>
<linearGradient id="paint0_linear_1_188" x1="85.2165" y1="-0.895452" x2="93.7854" y2="159.895" gradientUnits="userSpaceOnUse">
<stop stop-color="#4E54E4"/>
<stop offset="1" stop-color="#BB227E"/>
</linearGradient>
</defs>
</svg>
