<svg width="161" height="174" viewBox="0 0 161 174" fill="none" xmlns="http://www.w3.org/2000/svg">
<path fill-rule="evenodd" clip-rule="evenodd" d="M60.3181 33.918C78.2437 25.5402 88.2818 -3.57026 107.61 0.520183C126.781 4.57762 128.322 32.1465 136.267 49.9916C141.837 62.4994 143.463 75.3749 146.848 88.643C151.183 105.634 164.559 121.917 158.859 138.537C152.956 155.751 135.752 168.771 117.97 172.847C101.087 176.717 85.9261 163.745 69.2798 159.069C53.6049 154.666 35.487 157.112 23.3795 146.276C10.6014 134.84 6.09713 117.174 3.53366 100.228C0.799789 82.1552 -3.58252 60.8435 8.34824 46.9114C20.2444 33.0197 43.7335 41.6691 60.3181 33.918Z" fill="url(#paint0_linear_1_186)" fill-opacity="0.35"/>
<defs>
<linearGradient id="paint0_linear_1_186" x1="46.9926" y1="22.369" x2="111.02" y2="176.625" gradientUnits="userSpaceOnUse">
<stop stop-color="#4E54E4"/>
<stop offset="1" stop-color="#BB227E"/>
</linearGradient>
</defs>
</svg>
